<svg xmlns="http://www.w3.org/2000/svg" width="91.472" height="60" viewBox="0 0 91.472 60"><defs><style>.a{fill:#fff;}</style></defs><g transform="translate(-36.402 -36.284)"><g transform="translate(38.18 36.284)"><path class="a" d="M57.144,70.49H52.08l-1.026-6.483h-6.4L43.633,70.49H38.59V70.4L45.2,36.284h5.369Zm-6.81-10.871L47.846,44.208l-2.51,15.411Z" transform="translate(-38.59 -36.284)"/><path class="a" d="M81.962,64.06a6.234,6.234,0,0,1-1.79,4.726A6.685,6.685,0,0,1,75.348,70.5H64.936V36.338H75.348a6.635,6.635,0,0,1,4.824,1.735,6.308,6.308,0,0,1,1.79,4.748Zm-5.13-.851V43.585q0-2.859-2.99-2.86h-3.8V66.112H73.71Q76.832,66.112,76.832,63.209Z" transform="translate(-43.521 -36.294)"/><path class="a" d="M108.229,70.5H102.9l-5.631-15.87V51.552h5.02V40.726H95.852V70.5H90.744V36.338H104.3q3.079,0,3.078,3.143V51.9q0,2.16-1.462,2.794a10.5,10.5,0,0,1-3.318.328Z" transform="translate(-48.352 -36.294)"/><path class="a" d="M121.311,70.5H116.2V36.338h5.108Z" transform="translate(-53.118 -36.294)"/><path class="a" d="M144.665,70.49H139.6l-1.026-6.483h-6.4l-1.026,6.483h-5.042V70.4l6.614-34.118H138.1Zm-6.81-10.871-2.488-15.411-2.511,15.411Z" transform="translate(-54.972 -36.284)"/></g><g transform="translate(36.402 74.433)"><path class="a" d="M46.028,105.014H44.112l-.764-4.835h-4.32l-.764,4.835H36.4v-.056l3.876-21.74h1.9ZM43.1,98.471l-1.9-11.779L39.277,98.471Z" transform="translate(-36.402 -83.218)"/><path class="a" d="M58.4,105.027H51.458V83.287h1.93v20.031H58.4Z" transform="translate(-39.22 -83.231)"/><path class="a" d="M71.539,83.287l-3.764,21.795h-1.82L62.19,83.287h1.917L66.8,100.6l.084,1.417q.013-.486.1-1.417l2.7-17.308Z" transform="translate(-41.229 -83.231)"/><path class="a" d="M85.471,105.014H83.555l-.764-4.835H78.47l-.764,4.835H75.845v-.056l3.876-21.74h1.9ZM82.54,98.471l-1.9-11.779L78.721,98.471Z" transform="translate(-43.785 -83.218)"/><path class="a" d="M100.152,105.027H98.125L94.082,93.385,94.347,93h3.445V85h-4.96v20.031H90.9V83.287H98.18a1.475,1.475,0,0,1,1.542,1.542V93.08q0,1.57-2.112,1.57c-.138,0-.343-.007-.611-.021s-.463-.021-.583-.021Q98.291,99.8,100.152,105.027Z" transform="translate(-46.603 -83.231)"/><path class="a" d="M114.405,105.014h-1.917l-.765-4.835H107.4l-.764,4.835h-1.862v-.056l3.876-21.74h1.9Zm-2.93-6.542-1.9-11.779-1.917,11.779Z" transform="translate(-49.201 -83.218)"/><path class="a" d="M128.794,101.1a3.779,3.779,0,0,1-1.131,2.826,3.927,3.927,0,0,1-2.855,1.1h-4.972V83.287h4.972a3.918,3.918,0,0,1,2.863,1.1,3.793,3.793,0,0,1,1.124,2.826Zm-1.931-.2V87.385a2.316,2.316,0,0,0-.673-1.73,2.385,2.385,0,0,0-1.743-.66h-2.681v18.323h2.57a2.6,2.6,0,0,0,1.826-.646A2.29,2.29,0,0,0,126.863,100.9Z" transform="translate(-52.019 -83.231)"/><path class="a" d="M144.21,103.485a1.493,1.493,0,0,1-.437,1.111,1.529,1.529,0,0,1-1.118.431H136.57a1.476,1.476,0,0,1-1.542-1.542V84.829a1.476,1.476,0,0,1,1.542-1.542h6.084a1.529,1.529,0,0,1,1.118.431,1.493,1.493,0,0,1,.437,1.111Zm-1.931-.167V85h-5.32v18.323Z" transform="translate(-54.863 -83.231)"/></g></g></svg>